# MagicaVoxel @ Ephtracy

# group
o po:0:0:0

# material
mtllib Box4.mtl
usemtl palette

# normals
vn -1 0 0
vn 1 0 0
vn 0 0 1
vn 0 0 -1
vn 0 -1 0
vn 0 1 0

# texcoords
vt 0.130859 0.5
vt 0.158203 0.5
vt 0.169922 0.5
vt 0.173828 0.5

# verts
v -1.2 0 1.2
v -1.2 0 1
v -1.2 0 -1
v -1.2 0 -1.2
v -1.2 0.1 1
v -1.2 0.1 -1
v -1.2 0.1 -1.1
v -1.2 0.2 1.1
v -1.2 0.2 1
v -1.2 0.3 0.9
v -1.2 0.3 0.6
v -1.2 0.3 0.3
v -1.2 0.3 0
v -1.2 0.4 0.3
v -1.2 0.4 0.2
v -1.2 0.4 0.1
v -1.2 0.4 0
v -1.2 0.4 -1.1
v -1.2 0.4 -1.2
v -1.2 0.5 1.2
v -1.2 0.5 1.1
v -1.2 0.6 0.3
v -1.2 0.6 0.2
v -1.2 0.6 0.1
v -1.2 0.6 0
v -1.2 0.7 1
v -1.2 0.7 0.9
v -1.2 0.7 0.6
v -1.2 0.7 0.5
v -1.2 0.8 1
v -1.2 0.8 0.9
v -1.2 0.8 0.6
v -1.2 0.8 0.5
v -1.2 0.9 0.9
v -1.2 0.9 0.8
v -1.2 0.9 0.7
v -1.2 0.9 0.6
v -1.2 0.9 0.3
v -1.2 0.9 0
v -1.2 1 0.8
v -1.2 1 0.7
v -1.2 1.6 -0.4
v -1.2 1.6 -0.8
v -1.2 2 -0.4
v -1.2 2 -0.8
v -1.2 2.3 1.1
v -1.2 2.3 -1.1
v -1.2 2.4 1.2
v -1.2 2.4 -1.2
v 1.2 0 1.2
v 1.2 0 0.9
v 1.2 0 -0.7
v 1.2 0 -1.2
v 1.2 0.1 1
v 1.2 0.1 0.9
v 1.2 0.1 -0.7
v 1.2 0.1 -0.8
v 1.2 0.2 1.1
v 1.2 0.2 1
v 1.2 0.2 -0.8
v 1.2 0.2 -0.9
v 1.2 0.3 0.8
v 1.2 0.3 0.5
v 1.2 0.3 -0.9
v 1.2 0.3 -1
v 1.2 0.4 -1.1
v 1.2 0.4 -1.2
v 1.2 0.5 0.9
v 1.2 0.5 0.8
v 1.2 0.5 0.5
v 1.2 0.5 0.4
v 1.2 0.5 -1
v 1.2 0.5 -1.1
v 1.2 0.6 1.2
v 1.2 0.6 1.1
v 1.2 0.6 0.9
v 1.2 0.6 0.8
v 1.2 0.6 0.5
v 1.2 0.6 0.4
v 1.2 0.7 0.8
v 1.2 0.7 0.7
v 1.2 0.7 0.6
v 1.2 0.7 0.5
v 1.2 0.8 0.7
v 1.2 0.8 0.6
v 1.2 1.4 -0.4
v 1.2 1.4 -0.9
v 1.2 1.8 -0.4
v 1.2 1.8 -0.9
v 1.2 2.3 1.1
v 1.2 2.3 -1.1
v 1.2 2.4 1.2
v 1.2 2.4 -1.2
v -1.2 0 1.2
v -1.2 0.5 1.2
v -1.2 2.4 1.2
v -1.1 0.5 1.2
v -1.1 0.6 1.2
v -1.1 2.3 1.2
v -1 0.4 1.2
v -1 0.6 1.2
v -0.9 0.1 1.2
v -0.9 0.4 1.2
v -0.8 0 1.2
v -0.8 0.1 1.2
v -0.2 1.4 1.2
v -0.2 2.3 1.2
v -0.2 2.4 1.2
v 0.2 1.4 1.2
v 0.2 2.3 1.2
v 0.2 2.4 1.2
v 0.9 0 1.2
v 0.9 0.1 1.2
v 0.9 0.2 1.2
v 1 0.2 1.2
v 1 0.5 1.2
v 1.1 0.5 1.2
v 1.1 0.6 1.2
v 1.1 2.3 1.2
v 1.2 0 1.2
v 1.2 0.6 1.2
v 1.2 2.4 1.2
v -1.2 0 -1.2
v -1.2 0.4 -1.2
v -1.2 2.4 -1.2
v -1.1 0.4 -1.2
v -1.1 0.5 -1.2
v -1.1 2.3 -1.2
v -1 0.3 -1.2
v -1 0.5 -1.2
v -0.9 0.2 -1.2
v -0.9 0.3 -1.2
v -0.8 0.1 -1.2
v -0.8 0.2 -1.2
v -0.7 0 -1.2
v -0.7 0.1 -1.2
v -0.2 1.6 -1.2
v -0.2 2.3 -1.2
v -0.2 2.4 -1.2
v 0.2 1.6 -1.2
v 0.2 2.3 -1.2
v 0.2 2.4 -1.2
v 0.8 0 -1.2
v 0.8 0.1 -1.2
v 0.8 0.2 -1.2
v 0.9 0.2 -1.2
v 0.9 0.3 -1.2
v 1 0.3 -1.2
v 1 0.6 -1.2
v 1.1 0.4 -1.2
v 1.1 0.6 -1.2
v 1.1 2.3 -1.2
v 1.2 0 -1.2
v 1.2 0.4 -1.2
v 1.2 2.4 -1.2
v -1.2 0 1.2
v -0.8 0 1.2
v 0.9 0 1.2
v 1.2 0 1.2
v -1.1 0 1.1
v -0.8 0 1.1
v 0.9 0 1.1
v 1.1 0 1.1
v -1.2 0 1
v -1.1 0 1
v 1.1 0 0.9
v 1.2 0 0.9
v 1.1 0 -0.7
v 1.2 0 -0.7
v -1.2 0 -1
v -1.1 0 -1
v -1.1 0 -1.1
v -0.7 0 -1.1
v 0.8 0 -1.1
v 1.1 0 -1.1
v -1.2 0 -1.2
v -0.7 0 -1.2
v 0.8 0 -1.2
v 1.2 0 -1.2
v -1.2 2.4 1.2
v -0.2 2.4 1.2
v 0.2 2.4 1.2
v 1.2 2.4 1.2
v -1.1 2.4 1.1
v -0.2 2.4 1.1
v 0.2 2.4 1.1
v 1.1 2.4 1.1
v -1.1 2.4 -1.1
v -0.2 2.4 -1.1
v 0.2 2.4 -1.1
v 1.1 2.4 -1.1
v -1.2 2.4 -1.2
v -0.2 2.4 -1.2
v 0.2 2.4 -1.2
v 1.2 2.4 -1.2

# faces
f 5/3/1 2/3/1 1/3/1
f 5/4/1 3/4/1 2/4/1
f 6/3/1 4/3/1 3/3/1
f 6/4/1 3/4/1 5/4/1
f 7/3/1 4/3/1 6/3/1
f 8/3/1 5/3/1 1/3/1
f 9/2/1 6/2/1 5/2/1
f 9/3/1 5/3/1 8/3/1
f 9/2/1 7/2/1 6/2/1
f 10/2/1 9/2/1 8/2/1
f 10/2/1 7/2/1 9/2/1
f 11/2/1 7/2/1 10/2/1
f 12/2/1 7/2/1 11/2/1
f 13/2/1 7/2/1 12/2/1
f 14/2/1 12/2/1 11/2/1
f 14/3/1 13/3/1 12/3/1
f 15/3/1 13/3/1 14/3/1
f 16/3/1 13/3/1 15/3/1
f 17/2/1 7/2/1 13/2/1
f 17/3/1 13/3/1 16/3/1
f 18/3/1 4/3/1 7/3/1
f 18/2/1 7/2/1 17/2/1
f 19/3/1 4/3/1 18/3/1
f 20/3/1 8/3/1 1/3/1
f 21/2/1 10/2/1 8/2/1
f 21/3/1 8/3/1 20/3/1
f 22/2/1 14/2/1 11/2/1
f 22/2/1 15/2/1 14/2/1
f 23/3/1 16/3/1 15/3/1
f 23/2/1 15/2/1 22/2/1
f 24/2/1 17/2/1 16/2/1
f 24/3/1 16/3/1 23/3/1
f 24/2/1 18/2/1 17/2/1
f 25/2/1 18/2/1 24/2/1
f 26/2/1 10/2/1 21/2/1
f 27/3/1 11/3/1 10/3/1
f 27/2/1 10/2/1 26/2/1
f 28/2/1 22/2/1 11/2/1
f 28/3/1 11/3/1 27/3/1
f 29/2/1 22/2/1 28/2/1
f 30/2/1 26/2/1 21/2/1
f 30/3/1 27/3/1 26/3/1
f 30/3/1 29/3/1 28/3/1
f 30/3/1 28/3/1 27/3/1
f 31/3/1 29/3/1 30/3/1
f 32/3/1 29/3/1 31/3/1
f 33/2/1 22/2/1 29/2/1
f 33/3/1 29/3/1 32/3/1
f 34/3/1 32/3/1 31/3/1
f 34/2/1 31/2/1 30/2/1
f 35/3/1 32/3/1 34/3/1
f 36/3/1 32/3/1 35/3/1
f 37/2/1 33/2/1 32/2/1
f 37/3/1 32/3/1 36/3/1
f 38/3/1 23/3/1 22/3/1
f 38/2/1 33/2/1 37/2/1
f 38/2/1 22/2/1 33/2/1
f 38/3/1 25/3/1 24/3/1
f 38/3/1 24/3/1 23/3/1
f 39/2/1 18/2/1 25/2/1
f 39/3/1 25/3/1 38/3/1
f 40/2/1 35/2/1 34/2/1
f 40/3/1 36/3/1 35/3/1
f 41/2/1 37/2/1 36/2/1
f 41/3/1 36/3/1 40/3/1
f 41/2/1 38/2/1 37/2/1
f 41/2/1 39/2/1 38/2/1
f 42/2/1 18/2/1 39/2/1
f 42/2/1 39/2/1 41/2/1
f 42/2/1 41/2/1 40/2/1
f 43/2/1 18/2/1 42/2/1
f 44/2/1 42/2/1 40/2/1
f 44/1/1 43/1/1 42/1/1
f 45/2/1 18/2/1 43/2/1
f 45/1/1 43/1/1 44/1/1
f 46/2/1 40/2/1 34/2/1
f 46/2/1 34/2/1 30/2/1
f 46/2/1 45/2/1 44/2/1
f 46/2/1 44/2/1 40/2/1
f 46/4/1 21/4/1 20/4/1
f 46/2/1 30/2/1 21/2/1
f 47/2/1 18/2/1 45/2/1
f 47/2/1 45/2/1 46/2/1
f 47/4/1 19/4/1 18/4/1
f 48/4/1 46/4/1 20/4/1
f 48/4/1 47/4/1 46/4/1
f 49/4/1 19/4/1 47/4/1
f 49/4/1 47/4/1 48/4/1
f 50/3/2 51/3/2 54/3/2
f 51/4/2 52/4/2 55/4/2
f 54/3/2 51/3/2 55/3/2
f 52/3/2 53/3/2 56/3/2
f 55/4/2 52/4/2 56/4/2
f 56/3/2 53/3/2 57/3/2
f 50/3/2 54/3/2 58/3/2
f 54/2/2 55/2/2 59/2/2
f 58/3/2 54/3/2 59/3/2
f 55/2/2 56/2/2 59/2/2
f 56/2/2 57/2/2 59/2/2
f 57/3/2 53/3/2 60/3/2
f 59/2/2 57/2/2 60/2/2
f 60/3/2 53/3/2 61/3/2
f 58/2/2 59/2/2 62/2/2
f 59/2/2 60/2/2 62/2/2
f 60/2/2 61/2/2 62/2/2
f 62/2/2 61/2/2 63/2/2
f 61/3/2 53/3/2 64/3/2
f 63/2/2 61/2/2 64/2/2
f 64/3/2 53/3/2 65/3/2
f 65/3/2 53/3/2 66/3/2
f 66/3/2 53/3/2 67/3/2
f 58/2/2 62/2/2 68/2/2
f 62/3/2 63/3/2 69/3/2
f 68/2/2 62/2/2 69/2/2
f 63/2/2 64/2/2 70/2/2
f 69/3/2 63/3/2 70/3/2
f 64/2/2 65/2/2 70/2/2
f 70/2/2 65/2/2 71/2/2
f 65/3/2 66/3/2 72/3/2
f 71/2/2 65/2/2 72/2/2
f 66/4/2 67/4/2 73/4/2
f 72/3/2 66/3/2 73/3/2
f 50/3/2 58/3/2 74/3/2
f 58/2/2 68/2/2 75/2/2
f 74/3/2 58/3/2 75/3/2
f 68/3/2 69/3/2 76/3/2
f 75/2/2 68/2/2 76/2/2
f 70/3/2 71/3/2 76/3/2
f 69/3/2 70/3/2 76/3/2
f 76/3/2 71/3/2 77/3/2
f 77/3/2 71/3/2 78/3/2
f 71/2/2 72/2/2 79/2/2
f 78/3/2 71/3/2 79/3/2
f 72/2/2 73/2/2 79/2/2
f 77/3/2 78/3/2 80/3/2
f 76/2/2 77/2/2 80/2/2
f 75/2/2 76/2/2 80/2/2
f 80/3/2 78/3/2 81/3/2
f 81/3/2 78/3/2 82/3/2
f 78/2/2 79/2/2 83/2/2
f 82/3/2 78/3/2 83/3/2
f 81/3/2 82/3/2 84/3/2
f 80/2/2 81/2/2 84/2/2
f 82/2/2 83/2/2 85/2/2
f 84/3/2 82/3/2 85/3/2
f 79/2/2 73/2/2 86/2/2
f 85/2/2 83/2/2 86/2/2
f 84/2/2 85/2/2 86/2/2
f 83/2/2 79/2/2 86/2/2
f 86/2/2 73/2/2 87/2/2
f 84/2/2 86/2/2 88/2/2
f 86/1/2 87/1/2 88/1/2
f 87/2/2 73/2/2 89/2/2
f 88/1/2 87/1/2 89/1/2
f 74/4/2 75/4/2 90/4/2
f 80/2/2 84/2/2 90/2/2
f 88/2/2 89/2/2 90/2/2
f 84/2/2 88/2/2 90/2/2
f 75/2/2 80/2/2 90/2/2
f 73/4/2 67/4/2 91/4/2
f 90/2/2 89/2/2 91/2/2
f 89/2/2 73/2/2 91/2/2
f 74/4/2 90/4/2 92/4/2
f 90/4/2 91/4/2 92/4/2
f 91/4/2 67/4/2 93/4/2
f 92/4/2 91/4/2 93/4/2
f 97/3/3 95/3/3 94/3/3
f 97/4/3 96/4/3 95/4/3
f 98/4/3 96/4/3 97/4/3
f 99/4/3 96/4/3 98/4/3
f 100/3/3 97/3/3 94/3/3
f 100/3/3 98/3/3 97/3/3
f 101/2/3 99/2/3 98/2/3
f 101/3/3 98/3/3 100/3/3
f 102/3/3 100/3/3 94/3/3
f 103/2/3 101/2/3 100/2/3
f 103/3/3 100/3/3 102/3/3
f 104/3/3 102/3/3 94/3/3
f 105/2/3 103/2/3 102/2/3
f 105/3/3 102/3/3 104/3/3
f 106/2/3 99/2/3 101/2/3
f 106/2/3 103/2/3 105/2/3
f 106/2/3 101/2/3 103/2/3
f 107/4/3 96/4/3 99/4/3
f 107/2/3 99/2/3 106/2/3
f 108/4/3 96/4/3 107/4/3
f 109/2/3 106/2/3 105/2/3
f 109/1/3 107/1/3 106/1/3
f 109/1/3 108/1/3 107/1/3
f 110/1/3 108/1/3 109/1/3
f 111/1/3 108/1/3 110/1/3
f 112/4/3 105/4/3 104/4/3
f 113/2/3 109/2/3 105/2/3
f 113/4/3 105/4/3 112/4/3
f 113/2/3 110/2/3 109/2/3
f 114/2/3 110/2/3 113/2/3
f 115/3/3 113/3/3 112/3/3
f 115/2/3 110/2/3 114/2/3
f 115/3/3 114/3/3 113/3/3
f 116/2/3 110/2/3 115/2/3
f 117/3/3 116/3/3 115/3/3
f 117/2/3 110/2/3 116/2/3
f 118/2/3 110/2/3 117/2/3
f 119/4/3 111/4/3 110/4/3
f 119/2/3 110/2/3 118/2/3
f 120/3/3 118/3/3 117/3/3
f 120/3/3 115/3/3 112/3/3
f 120/3/3 117/3/3 115/3/3
f 121/4/3 119/4/3 118/4/3
f 121/3/3 118/3/3 120/3/3
f 122/4/3 111/4/3 119/4/3
f 122/4/3 119/4/3 121/4/3
f 123/3/4 124/3/4 126/3/4
f 124/4/4 125/4/4 126/4/4
f 126/4/4 125/4/4 127/4/4
f 127/4/4 125/4/4 128/4/4
f 123/3/4 126/3/4 129/3/4
f 126/3/4 127/3/4 129/3/4
f 127/2/4 128/2/4 130/2/4
f 129/3/4 127/3/4 130/3/4
f 123/3/4 129/3/4 131/3/4
f 129/2/4 130/2/4 132/2/4
f 131/3/4 129/3/4 132/3/4
f 123/3/4 131/3/4 133/3/4
f 131/2/4 132/2/4 134/2/4
f 133/3/4 131/3/4 134/3/4
f 123/3/4 133/3/4 135/3/4
f 133/2/4 134/2/4 136/2/4
f 135/3/4 133/3/4 136/3/4
f 130/2/4 128/2/4 137/2/4
f 136/2/4 134/2/4 137/2/4
f 132/2/4 130/2/4 137/2/4
f 134/2/4 132/2/4 137/2/4
f 128/4/4 125/4/4 138/4/4
f 137/2/4 128/2/4 138/2/4
f 138/4/4 125/4/4 139/4/4
f 136/2/4 137/2/4 140/2/4
f 137/1/4 138/1/4 140/1/4
f 138/1/4 139/1/4 140/1/4
f 140/1/4 139/1/4 141/1/4
f 141/1/4 139/1/4 142/1/4
f 135/4/4 136/4/4 143/4/4
f 136/2/4 140/2/4 144/2/4
f 143/4/4 136/4/4 144/4/4
f 140/2/4 141/2/4 144/2/4
f 144/2/4 141/2/4 145/2/4
f 143/3/4 144/3/4 146/3/4
f 145/2/4 141/2/4 146/2/4
f 144/3/4 145/3/4 146/3/4
f 146/2/4 141/2/4 147/2/4
f 146/3/4 147/3/4 148/3/4
f 147/2/4 141/2/4 148/2/4
f 148/2/4 141/2/4 149/2/4
f 148/3/4 149/3/4 150/3/4
f 149/2/4 141/2/4 151/2/4
f 150/3/4 149/3/4 151/3/4
f 141/4/4 142/4/4 152/4/4
f 151/2/4 141/2/4 152/2/4
f 143/3/4 146/3/4 153/3/4
f 146/3/4 148/3/4 153/3/4
f 148/3/4 150/3/4 153/3/4
f 150/4/4 151/4/4 154/4/4
f 153/3/4 150/3/4 154/3/4
f 151/4/4 152/4/4 154/4/4
f 152/4/4 142/4/4 155/4/4
f 154/4/4 152/4/4 155/4/4
f 160/3/5 157/3/5 156/3/5
f 161/4/5 158/4/5 157/4/5
f 161/3/5 157/3/5 160/3/5
f 162/3/5 159/3/5 158/3/5
f 162/4/5 158/4/5 161/4/5
f 163/3/5 159/3/5 162/3/5
f 164/3/5 160/3/5 156/3/5
f 165/2/5 161/2/5 160/2/5
f 165/3/5 160/3/5 164/3/5
f 165/2/5 162/2/5 161/2/5
f 165/2/5 163/2/5 162/2/5
f 166/3/5 159/3/5 163/3/5
f 166/2/5 163/2/5 165/2/5
f 167/3/5 159/3/5 166/3/5
f 168/2/5 166/2/5 165/2/5
f 168/4/5 167/4/5 166/4/5
f 169/4/5 167/4/5 168/4/5
f 170/4/5 165/4/5 164/4/5
f 171/2/5 168/2/5 165/2/5
f 171/4/5 165/4/5 170/4/5
f 172/3/5 171/3/5 170/3/5
f 172/2/5 168/2/5 171/2/5
f 173/2/5 168/2/5 172/2/5
f 174/2/5 168/2/5 173/2/5
f 175/3/5 169/3/5 168/3/5
f 175/2/5 168/2/5 174/2/5
f 176/3/5 172/3/5 170/3/5
f 176/3/5 173/3/5 172/3/5
f 177/4/5 174/4/5 173/4/5
f 177/3/5 173/3/5 176/3/5
f 178/3/5 175/3/5 174/3/5
f 178/4/5 174/4/5 177/4/5
f 179/3/5 169/3/5 175/3/5
f 179/3/5 175/3/5 178/3/5
f 180/4/6 181/4/6 184/4/6
f 181/1/6 182/1/6 185/1/6
f 184/4/6 181/4/6 185/4/6
f 182/4/6 183/4/6 186/4/6
f 185/1/6 182/1/6 186/1/6
f 186/4/6 183/4/6 187/4/6
f 184/2/6 185/2/6 188/2/6
f 180/4/6 184/4/6 188/4/6
f 185/1/6 186/1/6 189/1/6
f 188/2/6 185/2/6 189/2/6
f 186/2/6 187/2/6 190/2/6
f 189/1/6 186/1/6 190/1/6
f 187/4/6 183/4/6 191/4/6
f 190/2/6 187/2/6 191/2/6
f 188/4/6 189/4/6 192/4/6
f 180/4/6 188/4/6 192/4/6
f 189/1/6 190/1/6 193/1/6
f 192/4/6 189/4/6 193/4/6
f 190/4/6 191/4/6 194/4/6
f 193/1/6 190/1/6 194/1/6
f 191/4/6 183/4/6 195/4/6
f 194/4/6 191/4/6 195/4/6
