# MagicaVoxel @ Ephtracy

# group
o po:0:0:0

# material
mtllib Floor2.mtl
usemtl palette

# normals
vn -1 0 0
vn 1 0 0
vn 0 0 1
vn 0 0 -1
vn 0 -1 0
vn 0 1 0

# texcoords
vt 0.134766 0.5
vt 0.158203 0.5
vt 0.177734 0.5

# verts
v -1.2 0 1.2
v -1.2 0 0.2
v -1.2 0 -0.2
v -1.2 0 -1.2
v -1.2 0.1 1.2
v -1.2 0.1 0.2
v -1.2 0.1 -0.2
v -1.2 0.1 -1.2
v 1.2 0 1.2
v 1.2 0 0.2
v 1.2 0 -0.2
v 1.2 0 -1.2
v 1.2 0.1 1.2
v 1.2 0.1 0.2
v 1.2 0.1 -0.2
v 1.2 0.1 -1.2
v -1.2 0 1.2
v -1.2 0.1 1.2
v -0.2 0 1.2
v -0.2 0.1 1.2
v 0.2 0 1.2
v 0.2 0.1 1.2
v 1.2 0 1.2
v 1.2 0.1 1.2
v -1.2 0 -1.2
v -1.2 0.1 -1.2
v -0.2 0 -1.2
v -0.2 0.1 -1.2
v 0.2 0 -1.2
v 0.2 0.1 -1.2
v 1.2 0 -1.2
v 1.2 0.1 -1.2
v -1.2 0 1.2
v -0.2 0 1.2
v 0.2 0 1.2
v 1.2 0 1.2
v -1.1 0 1.1
v -0.2 0 1.1
v 0.2 0 1.1
v 1.1 0 1.1
v -1.2 0 0.2
v -1.1 0 0.2
v -0.2 0 0.2
v 0.2 0 0.2
v 1.1 0 0.2
v 1.2 0 0.2
v -1.2 0 -0.2
v -1.1 0 -0.2
v -0.2 0 -0.2
v 0.2 0 -0.2
v 1.1 0 -0.2
v 1.2 0 -0.2
v -1.1 0 -1.1
v -0.2 0 -1.1
v 0.2 0 -1.1
v 1.1 0 -1.1
v -1.2 0 -1.2
v -0.2 0 -1.2
v 0.2 0 -1.2
v 1.2 0 -1.2
v -1.2 0.1 1.2
v -0.2 0.1 1.2
v 0.2 0.1 1.2
v 1.2 0.1 1.2
v -1.1 0.1 1.1
v -0.2 0.1 1.1
v 0.2 0.1 1.1
v 1.1 0.1 1.1
v -1.2 0.1 0.2
v -1.1 0.1 0.2
v -0.2 0.1 0.2
v 0.2 0.1 0.2
v 1.1 0.1 0.2
v 1.2 0.1 0.2
v -1.2 0.1 -0.2
v -1.1 0.1 -0.2
v -0.2 0.1 -0.2
v 0.2 0.1 -0.2
v 1.1 0.1 -0.2
v 1.2 0.1 -0.2
v -1.1 0.1 -1.1
v -0.2 0.1 -1.1
v 0.2 0.1 -1.1
v 1.1 0.1 -1.1
v -1.2 0.1 -1.2
v -0.2 0.1 -1.2
v 0.2 0.1 -1.2
v 1.2 0.1 -1.2

# faces
f 5/3/1 2/3/1 1/3/1
f 6/1/1 3/1/1 2/1/1
f 6/3/1 2/3/1 5/3/1
f 7/3/1 4/3/1 3/3/1
f 7/1/1 3/1/1 6/1/1
f 8/3/1 4/3/1 7/3/1
f 9/3/2 10/3/2 13/3/2
f 10/1/2 11/1/2 14/1/2
f 13/3/2 10/3/2 14/3/2
f 11/3/2 12/3/2 15/3/2
f 14/1/2 11/1/2 15/1/2
f 15/3/2 12/3/2 16/3/2
f 19/3/3 18/3/3 17/3/3
f 20/3/3 18/3/3 19/3/3
f 21/1/3 20/1/3 19/1/3
f 22/1/3 20/1/3 21/1/3
f 23/3/3 22/3/3 21/3/3
f 24/3/3 22/3/3 23/3/3
f 25/3/4 26/3/4 27/3/4
f 27/3/4 26/3/4 28/3/4
f 27/1/4 28/1/4 29/1/4
f 29/1/4 28/1/4 30/1/4
f 29/3/4 30/3/4 31/3/4
f 31/3/4 30/3/4 32/3/4
f 37/3/5 34/3/5 33/3/5
f 38/1/5 35/1/5 34/1/5
f 38/3/5 34/3/5 37/3/5
f 39/3/5 36/3/5 35/3/5
f 39/1/5 35/1/5 38/1/5
f 40/3/5 36/3/5 39/3/5
f 41/3/5 37/3/5 33/3/5
f 42/2/5 38/2/5 37/2/5
f 42/3/5 37/3/5 41/3/5
f 43/1/5 39/1/5 38/1/5
f 43/2/5 38/2/5 42/2/5
f 44/2/5 40/2/5 39/2/5
f 44/1/5 39/1/5 43/1/5
f 45/3/5 36/3/5 40/3/5
f 45/2/5 40/2/5 44/2/5
f 46/3/5 36/3/5 45/3/5
f 47/1/5 44/1/5 43/1/5
f 47/1/5 42/1/5 41/1/5
f 47/1/5 46/1/5 45/1/5
f 47/1/5 45/1/5 44/1/5
f 47/1/5 43/1/5 42/1/5
f 48/1/5 46/1/5 47/1/5
f 49/1/5 46/1/5 48/1/5
f 50/1/5 46/1/5 49/1/5
f 51/1/5 46/1/5 50/1/5
f 52/1/5 46/1/5 51/1/5
f 53/3/5 48/3/5 47/3/5
f 53/2/5 49/2/5 48/2/5
f 54/1/5 50/1/5 49/1/5
f 54/2/5 49/2/5 53/2/5
f 55/2/5 51/2/5 50/2/5
f 55/1/5 50/1/5 54/1/5
f 56/3/5 52/3/5 51/3/5
f 56/2/5 51/2/5 55/2/5
f 57/3/5 53/3/5 47/3/5
f 57/3/5 54/3/5 53/3/5
f 58/1/5 55/1/5 54/1/5
f 58/3/5 54/3/5 57/3/5
f 59/3/5 56/3/5 55/3/5
f 59/1/5 55/1/5 58/1/5
f 60/3/5 52/3/5 56/3/5
f 60/3/5 56/3/5 59/3/5
f 61/3/6 62/3/6 65/3/6
f 62/1/6 63/1/6 66/1/6
f 65/3/6 62/3/6 66/3/6
f 63/3/6 64/3/6 67/3/6
f 66/1/6 63/1/6 67/1/6
f 67/3/6 64/3/6 68/3/6
f 61/3/6 65/3/6 69/3/6
f 65/2/6 66/2/6 70/2/6
f 69/3/6 65/3/6 70/3/6
f 66/1/6 67/1/6 71/1/6
f 70/2/6 66/2/6 71/2/6
f 67/2/6 68/2/6 72/2/6
f 71/1/6 67/1/6 72/1/6
f 68/3/6 64/3/6 73/3/6
f 72/2/6 68/2/6 73/2/6
f 73/3/6 64/3/6 74/3/6
f 71/1/6 72/1/6 75/1/6
f 69/1/6 70/1/6 75/1/6
f 73/1/6 74/1/6 75/1/6
f 72/1/6 73/1/6 75/1/6
f 70/1/6 71/1/6 75/1/6
f 75/1/6 74/1/6 76/1/6
f 76/1/6 74/1/6 77/1/6
f 77/1/6 74/1/6 78/1/6
f 78/1/6 74/1/6 79/1/6
f 79/1/6 74/1/6 80/1/6
f 75/3/6 76/3/6 81/3/6
f 76/2/6 77/2/6 81/2/6
f 77/1/6 78/1/6 82/1/6
f 81/2/6 77/2/6 82/2/6
f 78/2/6 79/2/6 83/2/6
f 82/1/6 78/1/6 83/1/6
f 79/3/6 80/3/6 84/3/6
f 83/2/6 79/2/6 84/2/6
f 75/3/6 81/3/6 85/3/6
f 81/3/6 82/3/6 85/3/6
f 82/1/6 83/1/6 86/1/6
f 85/3/6 82/3/6 86/3/6
f 83/3/6 84/3/6 87/3/6
f 86/1/6 83/1/6 87/1/6
f 84/3/6 80/3/6 88/3/6
f 87/3/6 84/3/6 88/3/6
