# MagicaVoxel @ Ephtracy

# group
o po:0:0:0

# material
mtllib Floor5.mtl
usemtl palette

# normals
vn -1 0 0
vn 1 0 0
vn 0 0 1
vn 0 0 -1
vn 0 -1 0
vn 0 1 0

# texcoords
vt 0.224609 0.5
vt 0.232422 0.5
vt 0.236328 0.5
vt 0.240234 0.5

# verts
v -1.2 0 1.2
v -1.2 0 -0.0999999
v -1.2 0 -1
v -1.2 0 -1.2
v -1.2 0.1 1.2
v -1.2 0.1 1.1
v -1.2 0.1 0.1
v -1.2 0.1 0
v -1.2 0.1 -0.0999999
v -1.2 0.1 -1
v -1.2 0.1 -1.2
v -1.2 0.2 1.1
v -1.2 0.2 0.1
v -1.2 0.2 0
v 0.0999999 0.1 1.1
v 0.0999999 0.1 0.2
v 0.0999999 0.1 0
v 0.0999999 0.2 1.1
v 0.0999999 0.2 0.2
v 0.0999999 0.2 0
v 0 0.1 1.1
v 0 0.1 0.1
v 0 0.1 0
v 0 0.2 1.1
v 0 0.2 0.1
v 0 0.2 0
v 1.2 0 1.2
v 1.2 0 -1.2
v 1.2 0.1 1.2
v 1.2 0.1 1.1
v 1.2 0.1 0.1
v 1.2 0.1 0
v 1.2 0.1 -1.2
v 1.2 0.2 1.1
v 1.2 0.2 0.1
v 1.2 0.2 0
v -1.2 0 1.2
v -1.2 0.1 1.2
v 1.2 0 1.2
v 1.2 0.1 1.2
v -1.2 0.1 1.1
v -1.2 0.2 1.1
v 0 0.1 1.1
v 0 0.2 1.1
v 0.0999999 0.1 1.1
v 0.0999999 0.2 1.1
v 0.2 0.1 1.1
v 0.2 0.2 1.1
v 1.2 0.1 1.1
v 1.2 0.2 1.1
v -1.2 0.1 0
v -1.2 0.2 0
v 0 0.1 0
v 0 0.2 0
v 0.0999999 0.1 0
v 0.0999999 0.2 0
v 0.3 0.1 0
v 0.3 0.2 0
v 1.2 0.1 0
v 1.2 0.2 0
v -1.2 0 -1.2
v -1.2 0.1 -1.2
v -1 0 -1.2
v -1 0.1 -1.2
v 1.1 0 -1.2
v 1.1 0.1 -1.2
v 1.2 0 -1.2
v 1.2 0.1 -1.2
v -1.2 0 1.2
v 1.2 0 1.2
v -1.2 0 -0.0999999
v -1.1 0 -0.0999999
v 1.1 0 -0.0999999
v -1.2 0 -1
v -1.1 0 -1
v -1.1 0 -1.1
v -1 0 -1.1
v 1.1 0 -1.1
v -1.2 0 -1.2
v -1 0 -1.2
v 1.1 0 -1.2
v 1.2 0 -1.2
v -1.2 0.1 1.2
v 1.2 0.1 1.2
v -1.2 0.1 1.1
v 0 0.1 1.1
v 0.0999999 0.1 1.1
v 0.2 0.1 1.1
v 1.2 0.1 1.1
v 0.0999999 0.1 0.2
v 0 0.1 0.1
v -1.2 0.1 0
v 0 0.1 0
v 0.0999999 0.1 0
v 0.3 0.1 0
v 1.2 0.1 0
v -1.2 0.1 -0.0999999
v -1.1 0.1 -0.0999999
v 1.1 0.1 -0.0999999
v -1.2 0.1 -1
v -1.1 0.1 -1
v -1.1 0.1 -1.1
v -1 0.1 -1.1
v 1.1 0.1 -1.1
v -1.2 0.1 -1.2
v -1 0.1 -1.2
v 1.1 0.1 -1.2
v 1.2 0.1 -1.2
v -1.2 0.2 1.1
v 0 0.2 1.1
v 0.0999999 0.2 1.1
v 0.2 0.2 1.1
v 1.2 0.2 1.1
v 0.0999999 0.2 0.2
v 0.2 0.2 0.2
v -1.2 0.2 0.1
v 0 0.2 0.1
v 0.2 0.2 0.1
v 0.3 0.2 0.1
v 1.2 0.2 0.1
v -1.2 0.2 0
v 0 0.2 0
v 0.0999999 0.2 0
v 0.3 0.2 0
v 1.2 0.2 0

# faces
f 5/3/1 2/3/1 1/3/1
f 6/3/1 2/3/1 5/3/1
f 7/3/1 2/3/1 6/3/1
f 8/3/1 2/3/1 7/3/1
f 9/1/1 3/1/1 2/1/1
f 9/3/1 2/3/1 8/3/1
f 10/4/1 4/4/1 3/4/1
f 10/1/1 3/1/1 9/1/1
f 11/4/1 4/4/1 10/4/1
f 12/2/1 7/2/1 6/2/1
f 13/1/1 8/1/1 7/1/1
f 13/2/1 7/2/1 12/2/1
f 14/1/1 8/1/1 13/1/1
f 18/1/1 16/1/1 15/1/1
f 19/4/1 17/4/1 16/4/1
f 19/1/1 16/1/1 18/1/1
f 20/4/1 17/4/1 19/4/1
f 21/2/2 22/2/2 24/2/2
f 22/1/2 23/1/2 25/1/2
f 24/2/2 22/2/2 25/2/2
f 25/1/2 23/1/2 26/1/2
f 27/3/2 28/3/2 29/3/2
f 29/3/2 28/3/2 30/3/2
f 30/3/2 28/3/2 31/3/2
f 31/3/2 28/3/2 32/3/2
f 32/3/2 28/3/2 33/3/2
f 30/2/2 31/2/2 34/2/2
f 31/1/2 32/1/2 35/1/2
f 34/2/2 31/2/2 35/2/2
f 35/1/2 32/1/2 36/1/2
f 39/3/3 38/3/3 37/3/3
f 40/3/3 38/3/3 39/3/3
f 43/2/3 42/2/3 41/2/3
f 44/2/3 42/2/3 43/2/3
f 47/1/3 46/1/3 45/1/3
f 48/1/3 46/1/3 47/1/3
f 49/2/3 48/2/3 47/2/3
f 50/2/3 48/2/3 49/2/3
f 51/1/4 52/1/4 53/1/4
f 53/1/4 52/1/4 54/1/4
f 55/4/4 56/4/4 57/4/4
f 57/4/4 56/4/4 58/4/4
f 57/1/4 58/1/4 59/1/4
f 59/1/4 58/1/4 60/1/4
f 61/4/4 62/4/4 63/4/4
f 63/4/4 62/4/4 64/4/4
f 63/1/4 64/1/4 65/1/4
f 65/1/4 64/1/4 66/1/4
f 65/3/4 66/3/4 67/3/4
f 67/3/4 66/3/4 68/3/4
f 71/3/5 70/3/5 69/3/5
f 72/3/5 70/3/5 71/3/5
f 73/3/5 70/3/5 72/3/5
f 74/1/5 72/1/5 71/1/5
f 75/2/5 73/2/5 72/2/5
f 75/1/5 72/1/5 74/1/5
f 76/4/5 75/4/5 74/4/5
f 76/2/5 73/2/5 75/2/5
f 77/2/5 73/2/5 76/2/5
f 78/3/5 70/3/5 73/3/5
f 78/2/5 73/2/5 77/2/5
f 79/4/5 77/4/5 76/4/5
f 79/4/5 76/4/5 74/4/5
f 80/1/5 78/1/5 77/1/5
f 80/4/5 77/4/5 79/4/5
f 81/3/5 70/3/5 78/3/5
f 81/1/5 78/1/5 80/1/5
f 82/3/5 70/3/5 81/3/5
f 83/3/6 84/3/6 85/3/6
f 85/3/6 84/3/6 86/3/6
f 86/3/6 84/3/6 87/3/6
f 87/3/6 84/3/6 88/3/6
f 88/3/6 84/3/6 89/3/6
f 86/3/6 87/3/6 90/3/6
f 86/3/6 90/3/6 91/3/6
f 91/3/6 90/3/6 93/3/6
f 93/3/6 90/3/6 94/3/6
f 93/3/6 94/3/6 97/3/6
f 95/3/6 96/3/6 97/3/6
f 94/3/6 95/3/6 97/3/6
f 92/3/6 93/3/6 97/3/6
f 97/3/6 96/3/6 98/3/6
f 98/3/6 96/3/6 99/3/6
f 97/1/6 98/1/6 100/1/6
f 98/2/6 99/2/6 101/2/6
f 100/1/6 98/1/6 101/1/6
f 100/4/6 101/4/6 102/4/6
f 101/2/6 99/2/6 102/2/6
f 102/2/6 99/2/6 103/2/6
f 99/3/6 96/3/6 104/3/6
f 103/2/6 99/2/6 104/2/6
f 102/4/6 103/4/6 105/4/6
f 100/4/6 102/4/6 105/4/6
f 103/1/6 104/1/6 106/1/6
f 105/4/6 103/4/6 106/4/6
f 104/3/6 96/3/6 107/3/6
f 106/1/6 104/1/6 107/1/6
f 107/3/6 96/3/6 108/3/6
f 111/1/6 112/1/6 114/1/6
f 112/2/6 113/2/6 115/2/6
f 114/1/6 112/1/6 115/1/6
f 109/2/6 110/2/6 116/2/6
f 116/2/6 110/2/6 117/2/6
f 115/2/6 113/2/6 118/2/6
f 114/4/6 115/4/6 118/4/6
f 118/2/6 113/2/6 119/2/6
f 119/2/6 113/2/6 120/2/6
f 116/1/6 117/1/6 121/1/6
f 121/1/6 117/1/6 122/1/6
f 114/4/6 118/4/6 123/4/6
f 118/4/6 119/4/6 123/4/6
f 119/1/6 120/1/6 124/1/6
f 123/4/6 119/4/6 124/4/6
f 124/1/6 120/1/6 125/1/6
